<svg width="739" height="773" viewBox="0 0 739 773" fill="none" xmlns="http://www.w3.org/2000/svg">
<path d="M719 398.5C719 573.85 576.85 716 401.5 716C226.15 716 84 573.85 84 398.5C84 223.15 226.15 81 401.5 81C576.85 81 719 223.15 719 398.5Z" fill="#EBF9FA"/>
<path d="M586.963 503.687C565.941 577.53 535.497 640.649 483.021 677.542C430.64 714.368 355.835 725.375 245.322 693.914C161.665 670.098 109.521 623.06 83.4352 563.768C57.32 504.409 57.208 432.506 78.1784 358.844C136.173 155.13 303.033 65.7087 449.706 107.464C499.776 121.718 535.915 144.384 561.358 172.573C586.803 200.765 601.65 234.591 608.961 271.314C623.6 344.84 608 429.789 586.963 503.687Z" stroke="#D8E6E7" stroke-width="4"/>
<path d="M670.963 477.687C649.941 551.53 619.497 614.649 567.021 651.542C514.64 688.368 439.835 699.375 329.322 667.914C245.665 644.098 193.521 597.06 167.435 537.768C141.32 478.409 141.208 406.506 162.178 332.844C220.173 129.13 387.033 39.7087 533.706 81.4641C583.776 95.7184 619.915 118.384 645.358 146.573C670.803 174.765 685.65 208.591 692.961 245.314C707.6 318.84 692 403.789 670.963 477.687Z" stroke="#D8E6E7" stroke-width="4"/>
</svg>
