<svg width="412" height="580" viewBox="0 0 412 580" fill="none" xmlns="http://www.w3.org/2000/svg">
<path d="M447 249.5C447 306.619 413.184 368.01 364.743 415.206C316.306 462.4 253.654 495 196.5 495C139.712 495 93.993 454.184 62.3507 398.402C30.7385 342.673 13.5 272.514 13.5 215C13.5 158.092 53.4601 104.866 108.273 65.739C163.041 26.6439 232.143 2 289.5 2C346.401 2 385.696 34.8305 410.872 82.2983C436.082 129.83 447 191.852 447 249.5Z" stroke="#F3E5DD" stroke-width="4"/>
<path d="M436 332.5C436 389.802 402.088 451.314 353.592 498.564C305.098 545.813 242.328 578.5 185 578.5C127.946 578.5 82.0943 537.494 50.4158 481.649C18.7599 425.843 1.5 355.599 1.5 298C1.5 240.856 41.6136 187.499 96.4826 148.332C151.318 109.189 220.52 84.5 278 84.5C335.139 84.5 374.578 117.485 399.814 165.064C425.074 212.69 436 274.801 436 332.5Z" stroke="#F3E5DD" stroke-width="3"/>
</svg>
